<?xml version="1.0" encoding="UTF-8" standalone="no"?><!DOCTYPE svg PUBLIC "-//W3C//DTD SVG 1.1//EN" "http://www.w3.org/Graphics/SVG/1.1/DTD/svg11.dtd"><svg width="100%" height="100%" viewBox="0 0 1979 1227" version="1.1" xmlns="http://www.w3.org/2000/svg" xmlns:xlink="http://www.w3.org/1999/xlink" xml:space="preserve" xmlns:serif="http://www.serif.com/" style="fill-rule:evenodd;clip-rule:evenodd;stroke-linejoin:round;stroke-miterlimit:2;"><path d="M388.794,1226.2c53.711,0 103.963,-10.071 150.757,-30.212c46.793,-20.142 87.992,-48.014 123.596,-83.618c35.604,-35.604 63.477,-76.905 83.618,-123.902c20.142,-46.997 30.213,-97.147 30.213,-150.451c-0,-53.711 -9.97,-104.065 -29.908,-151.062c-19.938,-46.997 -47.709,-88.298 -83.313,-123.902c-35.604,-35.604 -76.904,-63.375 -123.901,-83.313c-46.997,-19.938 -97.351,-29.907 -151.062,-29.907c-53.711,0 -104.065,9.969 -151.062,29.907c-46.997,19.938 -88.298,47.709 -123.901,83.313c-35.604,35.604 -63.477,76.905 -83.619,123.902c-20.141,46.997 -30.212,97.351 -30.212,151.062c0,53.711 10.071,103.963 30.212,150.757c20.142,46.793 48.015,87.992 83.619,123.596c35.603,35.604 76.904,63.476 123.901,83.618c46.997,20.141 97.351,30.212 151.062,30.212Zm-0,-95.825c-40.69,0 -78.634,-7.528 -113.831,-22.583c-35.197,-15.055 -66.223,-35.909 -93.078,-62.561c-26.856,-26.652 -47.811,-57.678 -62.866,-93.079c-15.056,-35.4 -22.583,-73.445 -22.583,-114.135c-0,-40.69 7.527,-78.634 22.583,-113.831c15.055,-35.197 36.01,-66.223 62.866,-93.078c26.855,-26.856 57.983,-47.811 93.384,-62.867c35.4,-15.055 73.242,-22.583 113.525,-22.583c40.283,0 78.125,7.528 113.525,22.583c35.401,15.056 66.529,36.011 93.384,62.867c26.856,26.855 47.811,57.983 62.866,93.383c15.056,35.401 22.583,73.242 22.583,113.526c0,40.283 -7.527,78.125 -22.583,113.525c-15.055,35.4 -36.01,66.528 -62.866,93.384c-26.855,26.855 -57.983,47.811 -93.384,62.866c-35.4,15.055 -73.242,22.583 -113.525,22.583Zm1201.78,95.825c53.711,0 103.963,-10.071 150.757,-30.212c46.794,-20.142 87.992,-48.014 123.596,-83.618c35.604,-35.604 63.477,-76.803 83.618,-123.596c20.142,-46.794 30.213,-97.046 30.213,-150.757c-0,-53.711 -10.071,-104.065 -30.213,-151.062c-20.141,-46.997 -48.014,-88.196 -83.618,-123.597c-35.604,-35.4 -76.802,-63.171 -123.596,-83.312c-46.794,-20.142 -97.046,-30.213 -150.757,-30.213c-53.711,0 -104.065,10.071 -151.062,30.213c-46.997,20.141 -88.399,47.912 -124.206,83.312c-35.808,35.401 -63.782,76.6 -83.924,123.597c-20.141,46.997 -30.212,97.351 -30.212,151.062c-0,53.711 10.071,104.065 30.212,151.062c20.142,46.997 48.116,88.297 83.924,123.901c35.807,35.604 77.209,63.375 124.206,83.313c46.997,19.938 97.351,29.907 151.062,29.907Zm0,-95.825c-54.118,0 -103.353,-13.021 -147.705,-39.062c-44.352,-26.042 -79.651,-61.239 -105.896,-105.591c-26.245,-44.352 -39.368,-93.587 -39.368,-147.705c0,-40.284 7.63,-78.125 22.889,-113.526c15.258,-35.4 36.214,-66.528 62.866,-93.383c26.652,-26.856 57.78,-47.811 93.384,-62.867c35.603,-15.055 73.547,-22.583 113.83,-22.583c40.283,0 78.125,7.63 113.526,22.888c35.4,15.259 66.426,36.316 93.078,63.172c26.652,26.855 47.608,57.882 62.866,93.078c15.259,35.197 22.889,72.937 22.889,113.221c-0,40.283 -7.63,78.125 -22.889,113.525c-15.258,35.4 -36.214,66.528 -62.866,93.384c-26.652,26.855 -57.678,47.811 -93.078,62.866c-35.401,15.055 -73.243,22.583 -113.526,22.583Zm-549.927,-1082.76c0,13.021 4.68,24.109 14.039,33.265c9.358,9.155 20.548,13.732 33.569,13.732l158.081,0c3.662,0 6.307,1.425 7.934,4.273l290.528,756.836l88.501,-30.518l-303.955,-784.301c-10.58,-27.263 -32.756,-40.894 -66.529,-40.894l-174.56,0c-13.021,0 -24.211,4.578 -33.569,13.733c-9.359,9.155 -14.039,20.447 -14.039,33.874Zm381.47,370.484l0,-87.891l-647.583,95.215l0,87.891l647.583,-95.215Zm-500.488,475.464l-0,-87.891l-526.734,0l0,87.891l526.734,-0Zm67.139,74.463c23.6,-0 45.064,-5.799 64.392,-17.395c19.327,-11.597 34.79,-26.958 46.386,-46.082c11.597,-19.124 17.395,-40.487 17.395,-64.087c0,-23.6 -5.798,-45.064 -17.395,-64.392c-11.596,-19.328 -27.059,-34.688 -46.386,-46.082c-19.328,-11.393 -40.792,-17.089 -64.392,-17.089c-23.601,-0 -45.065,5.696 -64.393,17.089c-19.327,11.394 -34.79,26.754 -46.386,46.082c-11.597,19.328 -17.395,40.792 -17.395,64.392c-0.407,23.193 5.086,44.454 16.479,63.782c11.393,19.328 26.856,34.79 46.387,46.387c19.531,11.596 41.3,17.395 65.308,17.395Zm0.61,-83.619c-12.614,0 -23.193,-4.272 -31.738,-12.817c-8.545,-8.545 -12.818,-18.717 -12.818,-30.518c0,-12.207 4.273,-22.684 12.818,-31.433c8.545,-8.748 19.124,-13.122 31.738,-13.122c12.207,-0 22.481,4.272 30.823,12.817c8.341,8.545 12.512,19.125 12.512,31.738c-0,11.801 -4.171,21.973 -12.512,30.518c-8.342,8.545 -18.616,12.817 -30.823,12.817Zm-600.586,32.959c21.973,0 40.792,-7.731 56.457,-23.193c15.666,-15.462 23.499,-34.18 23.499,-56.152c0,-22.38 -7.731,-41.301 -23.193,-56.763c-15.463,-15.462 -34.383,-23.193 -56.763,-23.193c-22.38,-0 -41.199,7.629 -56.458,22.888c-15.258,15.259 -22.888,34.281 -22.888,57.068c-0.407,21.972 7.121,40.69 22.583,56.152c15.462,15.462 34.383,23.193 56.763,23.193Zm1201.78,0.611c21.973,-0 40.69,-7.833 56.153,-23.499c15.462,-15.665 23.193,-34.485 23.193,-56.457c-0,-22.38 -7.63,-41.199 -22.888,-56.458c-15.259,-15.259 -34.078,-22.888 -56.458,-22.888c-21.972,-0 -40.69,7.528 -56.152,22.583c-15.462,15.055 -23.397,33.976 -23.804,56.763c-0.407,21.972 7.223,40.792 22.888,56.457c15.666,15.666 34.689,23.499 57.068,23.499Zm-622.558,-173.34l78.735,44.556l379.639,-407.105l-110.474,-3.662l-347.9,366.211Zm-615.235,62.866l78.125,44.556l363.159,-371.094l-75.073,-53.711l-366.211,380.249Zm551.148,-6.103l78.125,-56.153l-269.165,-510.254l-91.553,19.532l282.593,546.875Zm-396.729,-578.614c0,13.021 4.578,24.109 13.733,33.264c9.155,9.156 20.447,13.733 33.875,13.733l239.868,0c13.427,0 24.719,-4.577 33.874,-13.733c9.156,-9.155 13.733,-20.243 13.733,-33.264c0,-13.021 -4.679,-24.21 -14.038,-33.569c-9.359,-9.359 -20.548,-14.038 -33.569,-14.038l-239.868,-0c-13.021,-0 -24.211,4.679 -33.57,14.038c-9.358,9.359 -14.038,20.548 -14.038,33.569Z" style="fill:#fff;fill-rule:nonzero;"/></svg>