<?xml version="1.0" encoding="UTF-8" standalone="no"?><!DOCTYPE svg PUBLIC "-//W3C//DTD SVG 1.1//EN" "http://www.w3.org/Graphics/SVG/1.1/DTD/svg11.dtd"><svg width="100%" height="100%" viewBox="0 0 2969 1840" version="1.1" xmlns="http://www.w3.org/2000/svg" xmlns:xlink="http://www.w3.org/1999/xlink" xml:space="preserve" xmlns:serif="http://www.serif.com/" style="fill-rule:evenodd;clip-rule:evenodd;stroke-linejoin:round;stroke-miterlimit:2;"><path d="M583.191,1839.29c80.566,0 155.945,-15.106 226.135,-45.318c70.191,-30.213 131.989,-72.022 185.394,-125.427c53.406,-53.406 95.215,-115.357 125.428,-185.852c30.212,-70.496 45.318,-145.722 45.318,-225.678c0,-80.566 -14.953,-156.097 -44.861,-226.593c-29.907,-70.496 -71.563,-132.446 -124.969,-185.852c-53.406,-53.406 -115.356,-95.062 -185.852,-124.97c-70.496,-29.907 -146.027,-44.86 -226.593,-44.86c-80.566,-0 -156.097,14.953 -226.593,44.86c-70.496,29.908 -132.446,71.564 -185.852,124.97c-53.406,53.406 -95.215,115.356 -125.427,185.852c-30.213,70.496 -45.319,146.027 -45.319,226.593c0,80.566 15.106,155.945 45.319,226.135c30.212,70.191 72.021,131.989 125.427,185.395c53.406,53.405 115.356,95.214 185.852,125.427c70.496,30.212 146.027,45.318 226.593,45.318Zm-0,-143.737c-61.035,-0 -117.951,-11.292 -170.746,-33.875c-52.795,-22.583 -99.335,-53.863 -139.618,-93.841c-40.283,-39.978 -71.716,-86.518 -94.299,-139.618c-22.583,-53.101 -33.875,-110.169 -33.875,-171.204c0,-61.035 11.292,-117.95 33.875,-170.746c22.583,-52.795 54.016,-99.335 94.299,-139.618c40.283,-40.283 86.975,-71.716 140.076,-94.299c53.1,-22.583 109.863,-33.875 170.288,-33.875c60.425,0 117.187,11.292 170.288,33.875c53.101,22.583 99.792,54.016 140.076,94.299c40.283,40.283 71.716,86.975 94.299,140.076c22.583,53.101 33.875,109.863 33.875,170.288c-0,60.425 -11.292,117.188 -33.875,170.288c-22.583,53.101 -54.016,99.793 -94.299,140.076c-40.284,40.283 -86.975,71.716 -140.076,94.299c-53.101,22.583 -109.863,33.875 -170.288,33.875Zm1802.67,143.737c80.567,0 155.945,-15.106 226.136,-45.318c70.19,-30.213 131.988,-72.022 185.394,-125.427c53.406,-53.406 95.215,-115.204 125.427,-185.395c30.212,-70.19 45.319,-145.569 45.319,-226.135c-0,-80.566 -15.107,-156.097 -45.319,-226.593c-30.212,-70.496 -72.021,-132.294 -125.427,-185.394c-53.406,-53.101 -115.204,-94.757 -185.394,-124.97c-70.191,-30.212 -145.569,-45.318 -226.136,-45.318c-80.566,-0 -156.097,15.106 -226.593,45.318c-70.495,30.213 -132.599,71.869 -186.31,124.97c-53.711,53.1 -95.672,114.898 -125.885,185.394c-30.212,70.496 -45.318,146.027 -45.318,226.593c-0,80.566 15.106,156.097 45.318,226.593c30.213,70.496 72.174,132.446 125.885,185.852c53.711,53.406 115.815,95.062 186.31,124.97c70.496,29.907 146.027,44.86 226.593,44.86Zm0,-143.737c-81.177,-0 -155.029,-19.532 -221.557,-58.594c-66.529,-39.063 -119.477,-91.858 -158.844,-158.386c-39.368,-66.529 -59.052,-140.381 -59.052,-221.558c0,-60.425 11.444,-117.187 34.332,-170.288c22.889,-53.101 54.322,-99.793 94.3,-140.076c39.978,-40.283 86.67,-71.716 140.075,-94.299c53.406,-22.583 110.321,-33.875 170.746,-33.875c60.425,0 117.188,11.445 170.288,34.333c53.101,22.888 99.64,54.474 139.618,94.757c39.978,40.283 71.411,86.822 94.3,139.618c22.888,52.795 34.332,109.405 34.332,169.83c-0,60.425 -11.444,117.188 -34.332,170.288c-22.889,53.101 -54.322,99.793 -94.3,140.076c-39.978,40.283 -86.517,71.716 -139.618,94.299c-53.1,22.583 -109.863,33.875 -170.288,33.875Zm-824.89,-1624.15c0,19.531 7.019,36.163 21.057,49.896c14.038,13.733 30.823,20.6 50.354,20.6l237.122,-0c5.493,-0 9.46,2.136 11.902,6.408l435.791,1135.25l132.751,-45.776l-455.932,-1176.45c-15.87,-40.893 -49.134,-61.34 -99.793,-61.34l-261.841,-0c-19.531,-0 -36.316,6.866 -50.354,20.599c-14.038,13.733 -21.057,30.671 -21.057,50.812Zm572.205,555.725l-0,-131.836l-971.375,142.823l0,131.835l971.375,-142.822Zm-750.733,713.196l0,-131.836l-790.1,0l0,131.836l790.1,0Zm100.708,111.694c35.401,0 67.597,-8.697 96.588,-26.092c28.992,-17.395 52.185,-40.436 69.581,-69.122c17.395,-28.687 26.092,-60.73 26.092,-96.131c0,-35.4 -8.697,-67.596 -26.092,-96.588c-17.396,-28.992 -40.589,-52.032 -69.581,-69.122c-28.991,-17.09 -61.187,-25.635 -96.588,-25.635c-35.4,-0 -67.596,8.545 -96.588,25.635c-28.992,17.09 -52.185,40.13 -69.58,69.122c-17.395,28.992 -26.092,61.188 -26.092,96.588c-0.611,34.79 7.629,66.681 24.719,95.673c17.09,28.991 40.283,52.185 69.58,69.58c29.297,17.395 61.951,26.092 97.961,26.092Zm0.916,-125.427c-18.921,0 -34.79,-6.409 -47.608,-19.226c-12.817,-12.817 -19.226,-28.076 -19.226,-45.776c0,-18.311 6.409,-34.027 19.226,-47.15c12.818,-13.123 28.687,-19.684 47.608,-19.684c18.31,0 33.722,6.409 46.234,19.226c12.512,12.818 18.768,28.687 18.768,47.608c0,17.7 -6.256,32.959 -18.768,45.776c-12.512,12.817 -27.924,19.226 -46.234,19.226Zm-900.879,49.439c32.959,-0 61.188,-11.597 84.686,-34.79c23.499,-23.194 35.248,-51.27 35.248,-84.229c-0,-33.569 -11.597,-61.951 -34.79,-85.144c-23.193,-23.193 -51.575,-34.79 -85.144,-34.79c-33.569,-0 -61.798,11.444 -84.686,34.332c-22.889,22.888 -34.333,51.422 -34.333,85.602c-0.61,32.959 10.682,61.035 33.875,84.229c23.193,23.193 51.575,34.79 85.144,34.79Zm1802.67,0.915c32.959,0 61.035,-11.749 84.229,-35.248c23.193,-23.498 34.79,-51.727 34.79,-84.686c-0,-33.569 -11.444,-61.798 -34.332,-84.686c-22.889,-22.888 -51.117,-34.333 -84.687,-34.333c-32.959,0 -61.035,11.292 -84.228,33.875c-23.194,22.583 -35.095,50.964 -35.706,85.144c-0.61,32.959 10.834,61.188 34.332,84.686c23.499,23.499 52.033,35.248 85.602,35.248Zm-933.838,-260.01l118.103,66.834l569.458,-610.657l-165.71,-5.493l-521.851,549.316Zm-922.851,94.3l117.187,66.833l544.739,-556.64l-112.61,-80.567l-549.316,570.374Zm826.721,-9.156l117.187,-84.228l-403.747,-765.381l-137.329,29.297l423.889,820.312Zm-595.093,-867.92c0,19.532 6.867,36.164 20.6,49.897c13.732,13.733 30.67,20.599 50.811,20.599l359.803,0c20.141,0 37.078,-6.866 50.811,-20.599c13.733,-13.733 20.6,-30.365 20.6,-49.897c-0,-19.531 -7.019,-36.315 -21.057,-50.354c-14.038,-14.038 -30.823,-21.057 -50.354,-21.057l-359.803,0c-19.531,0 -36.316,7.019 -50.354,21.057c-14.038,14.039 -21.057,30.823 -21.057,50.354Z" style="fill-rule:nonzero;"/></svg>