<?xml version="1.0" encoding="UTF-8" standalone="no"?><!DOCTYPE svg PUBLIC "-//W3C//DTD SVG 1.1//EN" "http://www.w3.org/Graphics/SVG/1.1/DTD/svg11.dtd"><svg width="100%" height="100%" viewBox="0 0 2038 2136" version="1.1" xmlns="http://www.w3.org/2000/svg" xmlns:xlink="http://www.w3.org/1999/xlink" xml:space="preserve" xmlns:serif="http://www.serif.com/" style="fill-rule:evenodd;clip-rule:evenodd;stroke-linejoin:round;stroke-miterlimit:2;"><path d="M128.174,1647.95c-0,56.153 15.564,101.319 46.692,135.498l-0,231.629c-0,33.569 11.596,62.103 34.79,85.601c23.193,23.499 51.88,35.248 86.059,35.248l108.033,0c34.179,0 63.018,-11.596 86.517,-34.79c23.498,-23.193 35.248,-51.88 35.248,-86.059l-0,-147.4c75.073,4.883 153.961,8.697 236.664,11.444c82.702,2.746 168.304,4.12 256.805,4.12c88.501,-0 174.103,-1.374 256.805,-4.12c82.703,-2.747 161.896,-6.561 237.58,-11.444l-0,147.4c-0,34.179 11.596,62.866 34.79,86.059c23.193,23.194 51.88,34.79 86.059,34.79l108.033,0c34.179,0 63.018,-11.749 86.517,-35.248c23.498,-23.498 35.248,-52.032 35.248,-85.601l-0,-231.629c31.128,-34.179 46.692,-79.345 46.692,-135.498l-0,-1412.66c-0,-59.205 -16.785,-105.591 -50.354,-139.161c-33.57,-33.569 -81.482,-54.016 -143.738,-61.34c-95.215,-10.986 -203.858,-19.531 -325.928,-25.635c-122.07,-6.103 -245.972,-9.155 -371.704,-9.155c-126.343,0 -250.397,3.052 -372.162,9.155c-121.765,6.104 -230.255,14.649 -325.47,25.635c-62.256,7.324 -110.016,27.771 -143.28,61.34c-33.264,33.57 -49.896,79.956 -49.896,139.161l-0,1412.66Zm890.808,115.357c-134.888,-0 -258.484,-2.747 -370.789,-8.24c-112.304,-5.493 -210.571,-13.428 -294.799,-23.804c-39.063,-4.883 -66.376,-17.242 -81.94,-37.079c-15.564,-19.836 -23.346,-47.454 -23.346,-82.855l-0,-1339.42c-0,-34.79 9.003,-62.409 27.008,-82.856c18.005,-20.446 44.098,-32.806 78.278,-37.078c82.397,-10.376 181.732,-18.311 298.004,-23.804c116.272,-5.493 238.8,-8.24 367.584,-8.24c127.563,0 249.481,2.747 365.753,8.24c116.272,5.493 216.217,13.428 299.835,23.804c39.063,4.882 66.529,17.242 82.398,37.078c15.869,19.837 23.803,47.455 23.803,82.856l0,1339.42c0,35.401 -7.934,63.019 -23.803,82.855c-15.869,19.837 -43.335,32.196 -82.398,37.079c-85.449,10.376 -184.478,18.311 -297.088,23.804c-112.61,5.493 -235.443,8.24 -368.5,8.24Zm-592.346,-513.611c89.111,14.038 184.021,24.566 284.729,31.586c100.708,7.019 203.094,10.528 307.159,10.528c104.065,0 206.604,-3.509 307.617,-10.528c101.014,-7.02 196.381,-17.548 286.103,-31.586c56.762,-9.155 85.144,-43.64 85.144,-103.455l-0,-787.353c-0,-68.36 -32.349,-105.896 -97.046,-112.61c-90.332,-9.155 -184.479,-16.022 -282.44,-20.6c-97.962,-4.577 -197.144,-6.713 -297.547,-6.408c-100.403,0.305 -199.585,2.594 -297.546,6.866c-97.962,4.273 -192.413,10.987 -283.356,20.142c-65.307,6.714 -97.961,44.25 -97.961,112.61l-0,787.353c-0,59.815 28.381,94.3 85.144,103.455Zm-238.953,-374.451l0,-536.499l-100.708,0c-25.635,0 -46.539,7.324 -62.714,21.973c-16.174,14.648 -24.261,34.179 -24.261,58.594l0,376.281c0,24.414 8.087,43.793 24.261,58.136c16.175,14.344 37.079,21.515 62.714,21.515l100.708,0Zm1662.6,0l100.708,0c25.635,0 46.539,-7.171 62.713,-21.515c16.175,-14.343 24.262,-33.722 24.262,-58.136l-0,-376.281c-0,-24.415 -8.087,-43.946 -24.262,-58.594c-16.174,-14.649 -37.078,-21.973 -62.713,-21.973l-100.708,0l-0,536.499Zm-1354.07,746.155c31.128,-0 57.373,-10.681 78.735,-32.044c21.362,-21.362 32.044,-47.607 32.044,-78.735c-0,-31.738 -10.682,-58.136 -32.044,-79.193c-21.362,-21.057 -47.607,-31.586 -78.735,-31.586c-31.738,0 -58.136,10.529 -79.193,31.586c-21.057,21.057 -31.586,47.455 -31.586,79.193c0,31.128 10.529,57.373 31.586,78.735c21.057,21.363 47.455,32.044 79.193,32.044Zm304.87,-32.959l434.876,-0c23.193,-0 42.267,-7.477 57.22,-22.43c14.954,-14.954 22.431,-34.028 22.431,-57.221c-0,-23.804 -7.477,-43.03 -22.431,-57.678c-14.953,-14.649 -34.027,-21.973 -57.22,-21.973l-434.876,0c-23.803,0 -43.182,7.324 -58.136,21.973c-14.953,14.648 -22.43,33.874 -22.43,57.678c0,23.193 7.477,42.267 22.43,57.221c14.954,14.953 34.333,22.43 58.136,22.43Zm740.662,32.959c31.738,-0 58.289,-10.681 79.651,-32.044c21.362,-21.362 32.043,-47.607 32.043,-78.735c0,-31.738 -10.681,-58.136 -32.043,-79.193c-21.362,-21.057 -47.913,-31.586 -79.651,-31.586c-31.128,0 -57.22,10.529 -78.278,31.586c-21.057,21.057 -31.585,47.455 -31.585,79.193c-0,31.128 10.528,57.373 31.585,78.735c21.058,21.363 47.15,32.044 78.278,32.044Z" style="fill-rule:nonzero;"/></svg>