<?xml version="1.0" encoding="UTF-8" standalone="no"?><!DOCTYPE svg PUBLIC "-//W3C//DTD SVG 1.1//EN" "http://www.w3.org/Graphics/SVG/1.1/DTD/svg11.dtd"><svg width="100%" height="100%" viewBox="0 0 2002 2118" version="1.1" xmlns="http://www.w3.org/2000/svg" xmlns:xlink="http://www.w3.org/1999/xlink" xml:space="preserve" xmlns:serif="http://www.serif.com/" style="fill-rule:evenodd;clip-rule:evenodd;stroke-linejoin:round;stroke-miterlimit:2;"><path d="M249.023,2117.62l108.033,-0c34.179,-0 63.018,-11.597 86.517,-34.79c23.499,-23.194 35.248,-51.88 35.248,-86.06l-0,-151.977c90.942,6.103 180.511,10.833 268.707,14.19c88.196,3.357 172.577,5.036 253.143,5.036c80.567,-0 164.948,-1.526 253.144,-4.578c88.195,-3.052 178.07,-7.935 269.622,-14.648l0,151.977c0,34.18 11.597,62.866 34.791,86.06c23.193,23.193 51.879,34.79 86.059,34.79l108.032,-0c34.18,-0 63.019,-11.75 86.518,-35.248c23.498,-23.499 35.247,-52.033 35.247,-85.602l0,-1761.47c0,-59.205 -16.784,-105.591 -50.354,-139.161c-33.569,-33.569 -81.176,-54.016 -142.822,-61.34c-97.656,-10.986 -205.993,-19.531 -325.012,-25.635c-119.019,-6.103 -237.427,-9.155 -355.225,-9.155c-117.187,-0 -235.138,2.899 -353.851,8.698c-118.713,5.798 -227.203,14.495 -325.47,26.092c-62.256,7.324 -110.016,27.771 -143.28,61.34c-33.264,33.57 -49.896,79.956 -49.896,139.161l-0,1761.47c-0,33.569 11.597,62.103 34.79,85.602c23.193,23.498 51.88,35.248 86.059,35.248Zm144.654,-878.907c-60.425,-9.155 -90.637,-45.471 -90.637,-108.947l-0,-812.989c-0,-72.631 34.79,-112.609 104.37,-119.934c63.476,-6.713 128.173,-12.359 194.091,-16.937c65.918,-4.578 132.294,-7.934 199.128,-10.071c66.833,-2.136 133.972,-3.204 201.416,-3.204c67.444,-0 134.582,1.068 201.416,3.204c66.833,2.137 133.056,5.493 198.669,10.071c65.613,4.578 130.158,10.224 193.634,16.937c68.97,7.325 103.455,47.303 103.455,119.934l-0,812.989c-0,63.476 -30.213,99.792 -90.637,108.947c-63.477,9.156 -128.785,16.938 -195.923,23.346c-67.139,6.409 -135.193,11.139 -204.163,14.191c-68.97,3.052 -138.397,4.578 -208.282,4.578c-69.886,-0 -139.466,-1.526 -208.741,-4.578c-69.275,-3.052 -137.176,-7.782 -203.704,-14.191c-66.529,-6.408 -131.226,-14.19 -194.092,-23.346Zm56.762,408.326c-33.569,-0 -61.645,-11.292 -84.228,-33.875c-22.583,-22.583 -33.875,-50.659 -33.875,-84.228c0,-33.57 11.292,-61.646 33.875,-84.229c22.583,-22.583 50.659,-33.874 84.228,-33.874c33.57,-0 61.646,11.291 84.229,33.874c22.583,22.583 33.874,50.659 33.874,84.229c0,33.569 -11.291,61.645 -33.874,84.228c-22.583,22.583 -50.659,33.875 -84.229,33.875Zm350.647,-40.284c-23.803,0 -43.182,-7.476 -58.136,-22.43c-14.953,-14.954 -22.43,-34.027 -22.43,-57.22c0,-23.804 7.477,-43.03 22.43,-57.679c14.954,-14.648 34.333,-21.972 58.136,-21.972l398.255,-0c23.193,-0 42.267,7.324 57.22,21.972c14.954,14.649 22.431,33.875 22.431,57.679c-0,23.193 -7.477,42.266 -22.431,57.22c-14.953,14.954 -34.027,22.43 -57.22,22.43l-398.255,0Zm749.817,40.284c-33.569,-0 -61.493,-11.292 -83.77,-33.875c-22.278,-22.583 -33.417,-50.659 -33.417,-84.228c-0,-33.57 11.139,-61.646 33.417,-84.229c22.277,-22.583 50.201,-33.874 83.77,-33.874c34.18,-0 62.561,11.291 85.144,33.874c22.583,22.583 33.875,50.659 33.875,84.229c-0,33.569 -11.292,61.645 -33.875,84.228c-22.583,22.583 -50.964,33.875 -85.144,33.875Zm-1363.22,-790.1l0,-518.189l-100.708,0c-25.635,0 -46.539,7.324 -62.714,21.973c-16.174,14.648 -24.261,34.179 -24.261,58.594l0,357.971c0,24.414 8.087,43.792 24.261,58.136c16.175,14.343 37.079,21.515 62.714,21.515l100.708,-0Zm1625.98,-0l100.708,-0c25.634,-0 46.539,-7.172 62.713,-21.515c16.175,-14.344 24.262,-33.722 24.262,-58.136l-0,-357.971c-0,-24.415 -8.087,-43.946 -24.262,-58.594c-16.174,-14.649 -37.079,-21.973 -62.713,-21.973l-100.708,0l-0,518.189Z" style="fill:#fff;fill-rule:nonzero;"/></svg>