<?xml version="1.0" encoding="UTF-8" standalone="no"?><!DOCTYPE svg PUBLIC "-//W3C//DTD SVG 1.1//EN" "http://www.w3.org/Graphics/SVG/1.1/DTD/svg11.dtd"><svg width="100%" height="100%" viewBox="0 0 2167 1699" version="1.1" xmlns="http://www.w3.org/2000/svg" xmlns:xlink="http://www.w3.org/1999/xlink" xml:space="preserve" xmlns:serif="http://www.serif.com/" style="fill-rule:evenodd;clip-rule:evenodd;stroke-linejoin:round;stroke-miterlimit:2;"><path d="M429.382,575.867c-3.662,16.479 -2.136,28.076 4.578,34.79c6.714,6.714 18.921,9.46 36.621,8.239c48.828,-3.662 101.929,-6.866 159.302,-9.613c57.373,-2.746 122.833,-4.882 196.38,-6.408c73.548,-1.526 159.15,-2.289 256.806,-2.289c97.656,-0 183.258,0.763 256.805,2.289c73.548,1.526 139.16,3.662 196.839,6.408c57.678,2.747 110.931,5.951 159.759,9.613c17.09,1.221 28.992,-1.525 35.706,-8.239c6.714,-6.714 8.239,-18.311 4.577,-34.79c-7.324,-32.349 -16.479,-66.529 -27.465,-102.539c-10.987,-36.011 -22.278,-69.428 -33.875,-100.251c-11.597,-30.822 -22.278,-54.473 -32.043,-70.953c-11.597,-20.752 -24.872,-36.011 -39.826,-45.776c-14.953,-9.766 -34.332,-16.48 -58.136,-20.142c-32.959,-4.883 -87.585,-8.697 -163.879,-11.444c-76.294,-2.747 -175.781,-4.12 -298.462,-4.12c-122.681,0 -222.168,1.373 -298.462,4.12c-76.294,2.747 -130.92,6.561 -163.879,11.444c-23.804,3.662 -43.183,10.376 -58.136,20.142c-14.954,9.765 -28.229,25.024 -39.826,45.776c-9.766,16.48 -20.447,40.131 -32.043,70.953c-11.597,30.823 -22.736,64.24 -33.417,100.251c-10.681,36.01 -19.989,70.19 -27.924,102.539Zm-6.408,623.474c42.114,-0 77.209,-14.191 105.285,-42.572c28.076,-28.382 42.115,-63.324 42.115,-104.828c-0,-42.114 -14.039,-77.21 -42.115,-105.286c-28.076,-28.076 -63.171,-42.114 -105.285,-42.114c-42.115,0 -77.21,14.038 -105.286,42.114c-28.076,28.076 -42.114,63.172 -42.114,105.286c-0,41.504 14.038,76.446 42.114,104.828c28.076,28.381 63.171,42.572 105.286,42.572Zm418.396,-36.621l484.314,-0c31.128,-0 56.457,-9.766 75.988,-29.297c19.532,-19.531 29.297,-45.166 29.297,-76.904c0,-31.128 -9.765,-56.458 -29.297,-75.989c-19.531,-19.531 -44.86,-29.297 -75.988,-29.297l-484.314,-0c-31.739,-0 -57.373,9.766 -76.905,29.297c-19.531,19.531 -29.297,44.861 -29.297,75.989c0,31.738 9.766,57.373 29.297,76.904c19.532,19.531 45.166,29.297 76.905,29.297Zm901.794,36.621c42.114,-0 77.21,-14.191 105.286,-42.572c28.076,-28.382 42.114,-63.324 42.114,-104.828c-0,-42.114 -14.038,-77.21 -42.114,-105.286c-28.076,-28.076 -63.172,-42.114 -105.286,-42.114c-41.504,0 -76.294,14.038 -104.37,42.114c-28.076,28.076 -42.114,63.172 -42.114,105.286c-0,41.504 14.038,76.446 42.114,104.828c28.076,28.381 62.866,42.572 104.37,42.572Zm-660.095,247.192c76.904,0 158.081,-0.915 243.53,-2.746c85.449,-1.831 169.373,-4.425 251.77,-7.782c82.398,-3.357 157.929,-7.172 226.593,-11.444c68.665,-4.273 124.664,-8.851 167.999,-13.733c62.256,-7.325 110.016,-27.771 143.28,-61.341c33.265,-33.569 49.897,-79.651 49.897,-138.244l-0,-161.133c-0,-51.88 -3.662,-97.199 -10.987,-135.956c-7.324,-38.757 -19.531,-75.073 -36.621,-108.948c-17.09,-33.874 -39.673,-69.122 -67.749,-105.743l-77.82,-99.793c-10.986,-54.931 -24.261,-109.253 -39.825,-162.963c-15.564,-53.711 -31.128,-101.929 -46.692,-144.654c-15.564,-42.724 -28.534,-75.378 -38.91,-97.961c-24.414,-51.88 -59.662,-93.079 -105.743,-123.596c-46.082,-30.518 -99.335,-49.744 -159.76,-57.679c-20.752,-3.051 -55.389,-5.493 -103.912,-7.324c-48.523,-1.831 -106.812,-3.204 -174.866,-4.12c-68.054,-0.915 -141.449,-1.373 -220.184,-1.373c-78.736,-0 -152.13,0.61 -220.184,1.831c-68.055,1.221 -126.343,2.747 -174.866,4.578c-48.523,1.831 -82.855,3.967 -102.997,6.408c-61.035,7.325 -114.441,26.398 -160.217,57.221c-45.777,30.823 -80.872,72.174 -105.286,124.054c-10.986,22.583 -24.109,55.237 -39.368,97.961c-15.258,42.725 -30.822,90.943 -46.692,144.654c-15.869,53.71 -29.296,108.032 -40.283,162.963l-76.904,99.793c-28.687,36.621 -51.422,71.869 -68.207,105.743c-16.784,33.875 -28.992,70.191 -36.621,108.948c-7.629,38.757 -11.444,84.076 -11.444,135.956l-0,161.133c-0,58.593 16.785,104.675 50.354,138.244c33.569,33.57 81.177,54.016 142.822,61.341c43.335,4.882 99.335,9.46 168,13.733c68.664,4.272 144.195,8.087 226.593,11.444c82.397,3.357 166.32,5.951 251.77,7.782c85.449,1.831 166.626,2.746 243.53,2.746Zm-0,-119.934c-77.515,0 -158.692,-0.915 -243.53,-2.746c-84.839,-1.832 -167.084,-4.12 -246.735,-6.867c-79.651,-2.746 -151.52,-6.103 -215.607,-10.071c-64.087,-3.967 -114.746,-8.392 -151.977,-13.275c-38.452,-4.883 -65.613,-17.242 -81.482,-37.079c-15.869,-19.836 -23.804,-47.149 -23.804,-81.939l0,-124.512c0,-42.114 2.747,-77.973 8.24,-107.575c5.493,-29.602 14.801,-57.525 27.923,-83.77c13.123,-26.245 31.586,-54.932 55.39,-86.06l93.384,-122.681c6.103,-32.959 14.038,-68.359 23.803,-106.201c9.766,-37.842 20.447,-75.378 32.044,-112.61c11.596,-37.231 23.346,-71.716 35.248,-103.454c11.901,-31.738 22.735,-58.289 32.501,-79.651c14.648,-31.738 36.316,-57.221 65.002,-76.447c28.687,-19.226 63.782,-31.28 105.286,-36.163c19.531,-2.441 52.185,-4.883 97.961,-7.324c45.777,-2.442 101.624,-4.425 167.542,-5.951c65.918,-1.526 138.855,-2.289 218.811,-2.289c80.566,0 153.961,0.763 220.184,2.289c66.223,1.526 122.07,3.509 167.542,5.951c45.471,2.441 77.057,4.883 94.757,7.324c43.335,5.493 79.193,17.853 107.574,37.079c28.382,19.226 50.202,44.403 65.46,75.531c9.766,21.362 20.447,47.913 32.044,79.651c11.597,31.738 23.193,66.223 34.79,103.454c11.597,37.232 22.278,74.768 32.043,112.61c9.766,37.842 17.701,73.242 23.804,106.201l94.299,122.681c23.804,31.128 42.267,59.815 55.39,86.06c13.122,26.245 22.278,54.168 27.466,83.77c5.188,29.602 7.782,65.461 7.782,107.575l-0,124.512c-0,34.79 -7.782,62.255 -23.346,82.397c-15.564,20.142 -42.878,32.349 -81.94,36.621c-36.621,4.883 -86.975,9.155 -151.062,12.818c-64.087,3.662 -136.108,7.019 -216.064,10.07c-79.957,3.052 -162.201,5.493 -246.735,7.325c-84.534,1.831 -165.863,2.746 -243.988,2.746Zm-914.612,371.704l107.117,0c34.79,0 63.781,-11.596 86.975,-34.79c23.193,-23.193 34.79,-51.88 34.79,-86.059l-0,-217.896l-350.647,-50.354l-0,268.25c-0,34.179 11.597,62.866 34.79,86.059c23.193,23.194 52.185,34.79 86.975,34.79Zm1722.11,0l108.032,0c34.18,0 62.866,-11.596 86.06,-34.79c23.193,-23.193 34.79,-51.88 34.79,-86.059l-0,-268.25l-349.732,50.354l0,217.896c0,34.179 11.597,62.866 34.79,86.059c23.194,23.194 51.88,34.79 86.06,34.79Z" style="fill-rule:nonzero;"/></svg>