<?xml version="1.0" encoding="UTF-8" standalone="no"?><!DOCTYPE svg PUBLIC "-//W3C//DTD SVG 1.1//EN" "http://www.w3.org/Graphics/SVG/1.1/DTD/svg11.dtd"><svg width="100%" height="100%" viewBox="0 0 2167 1699" version="1.1" xmlns="http://www.w3.org/2000/svg" xmlns:xlink="http://www.w3.org/1999/xlink" xml:space="preserve" xmlns:serif="http://www.serif.com/" style="fill-rule:evenodd;clip-rule:evenodd;stroke-linejoin:round;stroke-miterlimit:2;"><path d="M378.113,522.766c6.714,-32.959 15.869,-68.054 27.466,-105.286c11.596,-37.231 23.498,-71.868 35.705,-103.912c12.207,-32.043 23.194,-56.915 32.959,-74.615c12.207,-21.363 25.94,-37.232 41.199,-47.608c15.259,-10.376 35.095,-17.395 59.509,-21.057c34.79,-4.883 92.774,-8.697 173.95,-11.444c81.177,-2.747 192.566,-4.12 334.168,-4.12c141.601,0 253.143,1.221 334.625,3.662c81.482,2.442 139.313,6.409 173.493,11.902c25.024,3.662 44.86,10.681 59.509,21.057c14.648,10.376 28.381,26.245 41.199,47.608c10.376,17.089 21.514,41.656 33.416,73.7c11.902,32.043 23.499,66.833 34.79,104.37c11.292,37.536 20.905,72.784 28.839,105.743c4.273,17.09 2.9,29.144 -4.119,36.163c-7.019,7.019 -19.379,9.919 -37.079,8.698c-50.659,-3.052 -106.354,-6.104 -167.084,-9.155c-60.73,-3.052 -131.226,-5.493 -211.487,-7.325c-80.261,-1.831 -175.629,-2.746 -286.102,-2.746c-110.474,-0 -205.841,0.915 -286.102,2.746c-80.262,1.832 -150.605,4.273 -211.029,7.325c-60.425,3.051 -115.967,6.103 -166.626,9.155c-17.701,1.221 -30.06,-1.679 -37.079,-8.698c-7.019,-7.019 -8.393,-19.073 -4.12,-36.163Zm44.861,676.575c-42.115,-0 -77.21,-14.191 -105.286,-42.572c-28.076,-28.382 -42.114,-63.324 -42.114,-104.828c-0,-42.114 14.038,-77.21 42.114,-105.286c28.076,-28.076 63.171,-42.114 105.286,-42.114c42.114,0 77.209,14.038 105.285,42.114c28.076,28.076 42.115,63.172 42.115,105.286c-0,41.504 -14.039,76.446 -42.115,104.828c-28.076,28.381 -63.171,42.572 -105.285,42.572Zm418.396,-36.621c-31.739,-0 -57.373,-9.766 -76.905,-29.297c-19.531,-19.531 -29.297,-45.166 -29.297,-76.904c0,-31.128 9.766,-56.458 29.297,-75.989c19.532,-19.531 45.166,-29.297 76.905,-29.297l484.314,-0c31.128,-0 56.457,9.766 75.988,29.297c19.532,19.531 29.297,44.861 29.297,75.989c0,31.738 -9.765,57.373 -29.297,76.904c-19.531,19.531 -44.86,29.297 -75.988,29.297l-484.314,-0Zm901.794,36.621c-41.504,-0 -76.294,-14.191 -104.37,-42.572c-28.076,-28.382 -42.114,-63.324 -42.114,-104.828c-0,-42.114 14.038,-77.21 42.114,-105.286c28.076,-28.076 62.866,-42.114 104.37,-42.114c42.114,0 77.21,14.038 105.286,42.114c28.076,28.076 42.114,63.172 42.114,105.286c-0,41.504 -14.038,76.446 -42.114,104.828c-28.076,28.381 -63.172,42.572 -105.286,42.572Zm-660.095,247.192c76.904,0 158.081,-0.915 243.53,-2.746c85.449,-1.831 169.373,-4.425 251.77,-7.782c82.398,-3.357 157.929,-7.172 226.593,-11.444c68.665,-4.273 124.664,-8.851 167.999,-13.733c62.256,-7.325 110.016,-27.771 143.28,-61.341c33.265,-33.569 49.897,-79.651 49.897,-138.244l-0,-161.133c-0,-51.88 -3.662,-97.199 -10.987,-135.956c-7.324,-38.757 -19.531,-75.073 -36.621,-108.948c-17.09,-33.874 -39.673,-69.122 -67.749,-105.743l-77.82,-99.793c-10.986,-54.931 -24.261,-109.253 -39.825,-162.963c-15.564,-53.711 -31.128,-101.929 -46.692,-144.654c-15.564,-42.724 -28.534,-75.378 -38.91,-97.961c-24.414,-51.88 -59.662,-93.079 -105.743,-123.596c-46.082,-30.518 -99.335,-49.744 -159.76,-57.679c-20.752,-3.051 -55.389,-5.493 -103.912,-7.324c-48.523,-1.831 -106.812,-3.204 -174.866,-4.12c-68.054,-0.915 -141.449,-1.373 -220.184,-1.373c-78.736,-0 -152.13,0.61 -220.184,1.831c-68.055,1.221 -126.343,2.747 -174.866,4.578c-48.523,1.831 -82.855,3.967 -102.997,6.408c-61.035,7.325 -114.441,26.398 -160.217,57.221c-45.777,30.823 -80.872,72.174 -105.286,124.054c-10.986,22.583 -24.109,55.237 -39.368,97.961c-15.258,42.725 -30.822,90.943 -46.692,144.654c-15.869,53.71 -29.296,108.032 -40.283,162.963l-76.904,99.793c-28.687,36.621 -51.422,71.869 -68.207,105.743c-16.784,33.875 -28.992,70.191 -36.621,108.948c-7.629,38.757 -11.444,84.076 -11.444,135.956l-0,161.133c-0,58.593 16.785,104.675 50.354,138.244c33.569,33.57 81.177,54.016 142.822,61.341c43.335,4.882 99.335,9.46 168,13.733c68.664,4.272 144.195,8.087 226.593,11.444c82.397,3.357 166.32,5.951 251.77,7.782c85.449,1.831 166.626,2.746 243.53,2.746Zm-961.304,251.77l107.117,0c34.18,0 63.019,-11.596 86.517,-34.79c23.499,-23.193 35.248,-51.88 35.248,-86.059l-0,-227.967l-350.647,-166.626l0,394.593c0,34.179 11.597,62.866 34.79,86.059c23.193,23.194 52.185,34.79 86.975,34.79Zm1815.49,0l108.032,0c34.18,0 62.866,-11.596 86.06,-34.79c23.193,-23.193 34.79,-51.88 34.79,-86.059l-0,-394.593l-349.732,166.626l0,227.967c0,34.179 11.597,62.866 34.79,86.059c23.194,23.194 51.88,34.79 86.06,34.79Z" style="fill:#fff;fill-rule:nonzero;"/></svg>