<?xml version="1.0" encoding="UTF-8" standalone="no"?><!DOCTYPE svg PUBLIC "-//W3C//DTD SVG 1.1//EN" "http://www.w3.org/Graphics/SVG/1.1/DTD/svg11.dtd"><svg width="100%" height="100%" viewBox="0 0 1460 1958" version="1.1" xmlns="http://www.w3.org/2000/svg" xmlns:xlink="http://www.w3.org/1999/xlink" xml:space="preserve" xmlns:serif="http://www.serif.com/" style="fill-rule:evenodd;clip-rule:evenodd;stroke-linejoin:round;stroke-miterlimit:2;"><path d="M0,1314.7c0,101.319 15.564,191.651 46.692,270.996c31.128,79.346 74.768,146.637 130.92,201.874c56.153,55.237 122.528,97.351 199.128,126.343c76.599,28.992 160.369,43.487 251.312,43.487c145.263,0 265.198,-30.517 359.802,-91.552c94.604,-61.035 171.814,-152.588 231.628,-274.658c17.701,-34.18 34.485,-69.886 50.354,-107.117c15.87,-37.232 31.128,-76.142 45.777,-116.73c14.648,-40.588 28.991,-82.855 43.03,-126.8c14.038,-43.946 28.381,-89.417 43.029,-136.414c7.935,-25.635 16.327,-52.643 25.177,-81.024c8.85,-28.382 16.48,-54.779 22.889,-79.193c6.408,-24.414 9.613,-43.946 9.613,-58.594c-0,-24.414 -8.088,-44.251 -24.262,-59.509c-16.174,-15.259 -37.384,-22.889 -63.629,-22.889c-28.687,0 -52.948,9.766 -72.784,29.297c-19.837,19.532 -40.436,50.965 -61.799,94.3l-127.258,267.334c-6.103,14.648 -12.817,25.024 -20.141,31.128c-7.325,6.103 -14.649,9.155 -21.973,9.155c-9.766,-0 -17.548,-3.204 -23.346,-9.613c-5.798,-6.409 -8.698,-17.548 -8.698,-33.417l0,-960.388c0,-26.856 -9.613,-49.896 -28.839,-69.122c-19.226,-19.226 -42.267,-28.84 -69.122,-28.84c-26.855,0 -49.896,9.614 -69.122,28.84c-19.226,19.226 -28.839,42.266 -28.839,69.122l-0,686.645c-12.818,-4.882 -25.94,-9.155 -39.368,-12.817c-13.428,-3.662 -27.466,-6.714 -42.114,-9.155l-0,-796.509c-0,-27.466 -9.613,-50.812 -28.839,-70.038c-19.227,-19.226 -42.267,-28.839 -69.123,-28.839c-27.466,-0 -50.812,9.613 -70.038,28.839c-19.226,19.226 -28.839,42.572 -28.839,70.038l0,786.438c-14.038,1.221 -28.381,2.747 -43.03,4.578c-14.648,1.831 -28.991,3.967 -43.029,6.408l-0,-719.604c-0,-26.856 -9.613,-49.896 -28.839,-69.123c-19.226,-19.226 -42.267,-28.839 -69.123,-28.839c-26.855,0 -49.896,9.613 -69.122,28.839c-19.226,19.227 -28.839,42.267 -28.839,69.123l-0,781.86c-15.259,7.324 -29.755,14.954 -43.488,22.888c-13.733,7.935 -26.703,15.869 -38.91,23.804l0,-543.823c0,-26.856 -9.613,-49.896 -28.839,-69.123c-19.226,-19.226 -42.267,-28.839 -69.122,-28.839c-27.466,0 -50.812,9.613 -70.038,28.839c-19.226,19.227 -28.839,42.267 -28.839,69.123l0,853.271Z" style="fill:#db4c4c;fill-rule:nonzero;"/></svg>