<?xml version="1.0" encoding="UTF-8" standalone="no"?><!DOCTYPE svg PUBLIC "-//W3C//DTD SVG 1.1//EN" "http://www.w3.org/Graphics/SVG/1.1/DTD/svg11.dtd"><svg width="100%" height="100%" viewBox="0 0 1235 2009" version="1.1" xmlns="http://www.w3.org/2000/svg" xmlns:xlink="http://www.w3.org/1999/xlink" xml:space="preserve" xmlns:serif="http://www.serif.com/" style="fill-rule:evenodd;clip-rule:evenodd;stroke-linejoin:round;stroke-miterlimit:2;"><path d="M154.035,1975.71l275.573,-327.759c13.428,-15.869 22.431,-27.923 27.008,-36.163c4.578,-8.24 9.613,-20.599 15.107,-37.079l20.141,-62.256l-147.4,-184.936l-44.861,206.909l-271.911,322.265c-21.362,25.635 -30.365,50.049 -27.008,73.243c3.357,23.193 13.885,42.114 31.586,56.762c17.7,14.649 37.994,21.82 60.882,21.515c22.888,-0.305 43.182,-11.139 60.883,-32.501Zm670.166,-27.466c14.038,28.687 33.111,46.539 57.22,53.559c24.109,7.019 47.15,5.645 69.122,-4.12c21.973,-9.766 37.537,-26.093 46.692,-48.981c9.156,-22.888 6.104,-49.896 -9.155,-81.024l-186.768,-378.113c-7.324,-14.038 -15.563,-28.534 -24.719,-43.488c-9.155,-14.953 -18.005,-28.533 -26.55,-40.741l-118.103,-167.541l8.24,-24.719c15.258,-47.608 26.55,-88.806 33.874,-123.596c7.324,-34.79 12.818,-75.684 16.48,-122.681l18.31,-264.588c4.273,-62.255 -10.834,-114.593 -45.318,-157.012c-34.485,-42.42 -84.076,-63.63 -148.774,-63.63c-48.217,0 -90.942,11.75 -128.173,35.248c-37.232,23.499 -78.125,56.915 -122.681,100.25l-140.076,138.245c-22.583,22.583 -38.452,44.251 -47.607,65.003c-9.155,20.751 -14.954,46.081 -17.395,75.988l-16.48,216.065c-2.441,27.466 3.357,49.896 17.395,67.291c14.038,17.395 33.57,26.703 58.594,27.924c25.635,1.831 46.082,-4.578 61.34,-19.227c15.259,-14.648 23.804,-36.621 25.635,-65.917l21.057,-237.122l66.834,-60.425c12.207,-10.986 24.566,-13.885 37.079,-8.697c12.512,5.188 18.463,13.885 17.852,26.092l-14.648,200.501c-4.272,50.659 0.153,92.01 13.275,124.054c13.123,32.043 37.079,69.732 71.869,113.067l185.852,232.544c9.155,11.597 15.259,20.6 18.311,27.008c3.051,6.409 6.408,13.275 10.07,20.6l191.346,388.183Zm318.603,-1109.62l-211.487,0l-132.751,-147.4l-15.564,220.642l53.101,53.101c14.648,14.648 29.754,24.719 45.318,30.212c15.564,5.493 37.079,8.24 64.545,8.24l196.838,-0c27.466,-0 49.591,-7.324 66.376,-21.973c16.785,-14.648 25.177,-34.79 25.177,-60.424c-0,-24.415 -8.392,-44.251 -25.177,-59.51c-16.785,-15.259 -38.91,-22.888 -66.376,-22.888Zm-525.513,-439.453c36.622,-0 70.038,-9.003 100.251,-27.008c30.212,-18.006 54.168,-42.114 71.869,-72.327c17.7,-30.212 26.55,-63.629 26.55,-100.25c-0,-37.231 -8.85,-70.953 -26.55,-101.166c-17.701,-30.212 -41.657,-54.169 -71.869,-71.869c-30.213,-17.7 -63.629,-26.55 -100.251,-26.55c-37.231,-0 -70.953,8.85 -101.165,26.55c-30.213,17.7 -54.169,41.657 -71.869,71.869c-17.7,30.213 -26.55,63.935 -26.55,101.166c-0,36.621 8.85,70.038 26.55,100.25c17.7,30.213 41.656,54.321 71.869,72.327c30.212,18.005 63.934,27.008 101.165,27.008Z" style="fill:#e8e8e8;fill-rule:nonzero;"/></svg>