<?xml version="1.0" encoding="UTF-8" standalone="no"?><!DOCTYPE svg PUBLIC "-//W3C//DTD SVG 1.1//EN" "http://www.w3.org/Graphics/SVG/1.1/DTD/svg11.dtd"><svg width="100%" height="100%" viewBox="0 0 5198 7016" version="1.1" xmlns="http://www.w3.org/2000/svg" xmlns:xlink="http://www.w3.org/1999/xlink" xml:space="preserve" xmlns:serif="http://www.serif.com/" style="fill-rule:evenodd;clip-rule:evenodd;stroke-linejoin:round;stroke-miterlimit:1.5;"><rect id="Artboard1" x="0" y="0" width="5197.41" height="7015.75" style="fill:none;"/><clipPath id="_clip1"><rect x="0" y="0" width="5197.41" height="7015.75"/></clipPath><g clip-path="url(#_clip1)"><rect x="0" y="0" width="472.441" height="7015.75" style="fill:#eff9e9;"/><rect x="472.441" y="0" width="708.661" height="7015.75" style="fill:#8e9395;"/><rect x="1889.76" y="0" width="708.661" height="7015.75" style="fill:#8e9395;"/><rect x="2598.43" y="0" width="708.661" height="7015.75" style="fill:#8e9395;"/><rect x="3307.09" y="0" width="708.661" height="7015.75" style="fill:#8e9395;"/><rect x="4015.75" y="-0" width="708.661" height="7015.75" style="fill:#8e9395;"/><rect x="4724.41" y="0" width="472.441" height="7015.75" style="fill:#eff9e9;"/><rect x="1181.1" y="0" width="708.661" height="7015.75" style="fill:#8e9395;"/><path d="M1181.1,0l0,7015.75" style="fill:none;stroke:#fff;stroke-width:33.33px;"/><path d="M1889.76,0l-0,7015.75" style="fill:none;stroke:#fff;stroke-width:33.33px;stroke-dasharray:166.67,333.33,0,0;"/><path d="M4015.75,0l0,7015.75" style="fill:none;stroke:#fff;stroke-width:33.33px;"/><path d="M3307.09,35.433l-0,7015.75" style="fill:none;stroke:#fff;stroke-width:33.33px;stroke-dasharray:166.67,333.33,0,0;"/><path d="M2568.9,0l1.181,7015.75" style="fill:none;stroke:#fefa53;stroke-width:33.33px;"/><path d="M2627.95,0l0.094,7015.75" style="fill:none;stroke:#fefa53;stroke-width:33.33px;"/><rect x="472.441" y="0" width="472.441" height="7015.75" style="fill:#6ea096;"/><rect x="4251.97" y="-0" width="472.441" height="7015.75" style="fill:#6ea096;"/><path d="M944.882,-0l-0,7015.75" style="fill:none;stroke:#fff;stroke-width:33.33px;"/><path d="M4251.97,-11.811l-0,7015.75" style="fill:none;stroke:#fff;stroke-width:33.33px;"/><g><path d="M1181.1,6944.88l-236.22,-283.465" style="fill:none;stroke:#fff;stroke-width:33.33px;"/><path d="M1181.1,5952.76l-236.22,-283.465" style="fill:none;stroke:#fff;stroke-width:33.33px;"/><path d="M1181.1,6614.17l-236.22,-283.464" style="fill:none;stroke:#fff;stroke-width:33.33px;"/><path d="M1181.1,5622.05l-236.22,-283.464" style="fill:none;stroke:#fff;stroke-width:33.33px;"/><path d="M1181.1,6283.47l-236.22,-283.465" style="fill:none;stroke:#fff;stroke-width:33.33px;"/><path d="M1181.1,5291.34l-236.22,-283.465" style="fill:none;stroke:#fff;stroke-width:33.33px;"/></g><g><path d="M1181.1,4960.63l-236.22,-283.465" style="fill:none;stroke:#fff;stroke-width:33.33px;"/><path d="M1181.1,3968.5l-236.22,-283.465" style="fill:none;stroke:#fff;stroke-width:33.33px;"/><path d="M1181.1,4629.92l-236.22,-283.464" style="fill:none;stroke:#fff;stroke-width:33.33px;"/><path d="M1181.1,3637.8l-236.22,-283.464" style="fill:none;stroke:#fff;stroke-width:33.33px;"/><path d="M1181.1,4299.21l-236.22,-283.465" style="fill:none;stroke:#fff;stroke-width:33.33px;"/><path d="M1181.1,3307.09l-236.22,-283.465" style="fill:none;stroke:#fff;stroke-width:33.33px;"/></g><g><path d="M1181.1,2881.89l-236.22,-283.465" style="fill:none;stroke:#fff;stroke-width:33.33px;"/><path d="M1181.1,1889.76l-236.22,-283.465" style="fill:none;stroke:#fff;stroke-width:33.33px;"/><path d="M1181.1,874.016l-236.22,-283.465" style="fill:none;stroke:#fff;stroke-width:33.33px;"/><path d="M4251.97,803.15l-236.221,-283.465" style="fill:none;stroke:#fff;stroke-width:33.33px;"/><path d="M1181.1,2551.18l-236.22,-283.464" style="fill:none;stroke:#fff;stroke-width:33.33px;"/><path d="M1181.1,1559.06l-236.22,-283.464" style="fill:none;stroke:#fff;stroke-width:33.33px;"/><path d="M1181.1,543.307l-236.22,-283.464" style="fill:none;stroke:#fff;stroke-width:33.33px;"/><path d="M4251.97,472.441l-236.221,-283.465" style="fill:none;stroke:#fff;stroke-width:33.33px;"/><path d="M1181.1,2220.47l-236.22,-283.464" style="fill:none;stroke:#fff;stroke-width:33.33px;"/><path d="M1181.1,1228.35l-236.22,-283.464" style="fill:none;stroke:#fff;stroke-width:33.33px;"/><path d="M1181.1,212.598l-236.22,-283.464" style="fill:none;stroke:#fff;stroke-width:33.33px;"/><path d="M4251.97,141.732l-236.221,-283.464" style="fill:none;stroke:#fff;stroke-width:33.33px;"/></g><g><path d="M4251.97,6897.64l-236.221,-283.465" style="fill:none;stroke:#fff;stroke-width:33.33px;"/><path d="M4251.97,5905.51l-236.221,-283.465" style="fill:none;stroke:#fff;stroke-width:33.33px;"/><path d="M4251.97,6566.93l-236.221,-283.464" style="fill:none;stroke:#fff;stroke-width:33.33px;"/><path d="M4251.97,5574.8l-236.221,-283.464" style="fill:none;stroke:#fff;stroke-width:33.33px;"/><path d="M4251.97,6236.22l-236.221,-283.464" style="fill:none;stroke:#fff;stroke-width:33.33px;"/><path d="M4251.97,5244.09l-236.221,-283.464" style="fill:none;stroke:#fff;stroke-width:33.33px;"/></g><g><path d="M4251.97,4771.65l-236.221,-283.465" style="fill:none;stroke:#fff;stroke-width:33.33px;"/><path d="M4251.97,3779.53l-236.221,-283.465" style="fill:none;stroke:#fff;stroke-width:33.33px;"/><path d="M4251.97,4440.94l-236.221,-283.465" style="fill:none;stroke:#fff;stroke-width:33.33px;"/><path d="M4251.97,3448.82l-236.221,-283.465" style="fill:none;stroke:#fff;stroke-width:33.33px;"/><path d="M4251.97,4110.24l-236.221,-283.464" style="fill:none;stroke:#fff;stroke-width:33.33px;"/><path d="M4251.97,3118.11l-236.221,-283.464" style="fill:none;stroke:#fff;stroke-width:33.33px;"/></g><g><path d="M4251.97,2763.78l-236.221,-283.465" style="fill:none;stroke:#fff;stroke-width:33.33px;"/><path d="M4251.97,1771.65l-236.221,-283.465" style="fill:none;stroke:#fff;stroke-width:33.33px;"/><path d="M4251.97,2433.07l-236.221,-283.465" style="fill:none;stroke:#fff;stroke-width:33.33px;"/><path d="M4251.97,1440.94l-236.221,-283.465" style="fill:none;stroke:#fff;stroke-width:33.33px;"/><path d="M4251.97,2102.36l-236.221,-283.464" style="fill:none;stroke:#fff;stroke-width:33.33px;"/><path d="M4251.97,1110.24l-236.221,-283.464" style="fill:none;stroke:#fff;stroke-width:33.33px;"/></g></g></svg>