<?xml version="1.0" encoding="UTF-8" standalone="no"?><!DOCTYPE svg PUBLIC "-//W3C//DTD SVG 1.1//EN" "http://www.w3.org/Graphics/SVG/1.1/DTD/svg11.dtd"><svg width="100%" height="100%" viewBox="0 0 5198 7016" version="1.1" xmlns="http://www.w3.org/2000/svg" xmlns:xlink="http://www.w3.org/1999/xlink" xml:space="preserve" xmlns:serif="http://www.serif.com/" style="fill-rule:evenodd;clip-rule:evenodd;stroke-linejoin:round;stroke-miterlimit:1.5;"><rect id="Artboard1" x="0" y="0" width="5197.41" height="7015.75" style="fill:none;"/><clipPath id="_clip1"><rect x="0" y="0" width="5197.41" height="7015.75"/></clipPath><g clip-path="url(#_clip1)"><rect x="0" y="0" width="1181.1" height="7015.75" style="fill:#eff9e9;"/><rect x="1889.76" y="0" width="708.661" height="7015.75" style="fill:#8e9395;"/><rect x="2598.43" y="0" width="1417.32" height="7015.75" style="fill:#8e9395;"/><rect x="4015.75" y="0" width="1181.1" height="7015.75" style="fill:#eff9e9;"/><rect x="1181.1" y="0" width="708.661" height="7015.75" style="fill:#8e9395;"/><rect x="1176.79" y="0" width="712.977" height="7015.75" style="fill:#b17d78;"/><rect x="3302.77" y="0" width="712.977" height="7015.75" style="fill:#b17d78;"/><path d="M2568.9,0l1.181,7015.75" style="fill:none;stroke:#fefa53;stroke-width:33.33px;"/><path d="M2627.95,0l0.094,7015.75" style="fill:none;stroke:#fefa53;stroke-width:33.33px;"/><rect x="472.441" y="0" width="472.441" height="7015.75" style="fill:#6ea096;"/><rect x="4251.97" y="-0" width="472.441" height="7015.75" style="fill:#6ea096;"/><path d="M944.882,-0l-0,7015.75" style="fill:none;stroke:#fff;stroke-width:33.33px;"/><g><path d="M1228.35,0l0,7015.75" style="fill:none;stroke:#fff;stroke-width:33.33px;"/><path d="M1889.76,0l-0,7015.75" style="fill:none;stroke:#fff;stroke-width:33.33px;"/><path d="M3302.77,-0l-0,7015.75" style="fill:none;stroke:#fff;stroke-width:33.33px;"/></g><path d="M3968.5,0l-0,7015.75" style="fill:none;stroke:#fff;stroke-width:33.33px;"/></g></svg>